<svg xmlns="http://www.w3.org/2000/svg" viewBox="0 0 512 512" width="512" height="512">
  <defs>
    <linearGradient id="bg" x1="0" y1="0" x2="0" y2="1">
      <stop offset="0%" stop-color="#23375a"/>
      <stop offset="100%" stop-color="#0e182c"/>
    </linearGradient>
  </defs>
  <rect width="512" height="512" rx="96" fill="url(#bg)"/>
  <g transform="translate(133.7, 406.0) scale(0.4267, -0.4267) translate(-55, 0)">
    <path d="M55 0V33Q93 35 107.0 50.5Q121 66 122.5 93.5Q124 121 124 156V588Q124 608 125.0 626.5Q126 645 127 660Q109 659 91.0 658.0Q73 657 55 656V700Q111 701 168.5 702.0Q226 703 284 701Q381 700 440.5 678.5Q500 657 528.0 617.5Q556 578 556 522Q557 483 541.5 442.5Q526 402 485.5 370.0Q445 338 369 322Q389 308 404.0 286.0Q419 264 438 235L506 128Q523 101 539.0 79.5Q555 58 576.0 45.5Q597 33 628 33V0H502Q473 26 453.5 52.0Q434 78 413 111L346 218Q333 239 316.5 266.5Q300 294 279 313Q263 312 245.5 312.0Q228 312 211 313V119Q211 92 210.5 72.5Q210 53 208 40Q220 41 232.0 41.5Q244 42 256.0 43.0Q268 44 280 44V0ZM273 350Q328 352 369.5 368.0Q411 384 435.0 419.0Q459 454 459 511Q459 549 448.5 577.5Q438 606 416.0 625.0Q394 644 360.0 653.5Q326 663 280 663Q243 663 228.5 648.0Q214 633 212.5 606.5Q211 580 211 544V352Q227 351 241.5 350.0Q256 349 273 350Z" fill="#e8e0d4"/>
  </g>
</svg>